<?xml version="1.0" encoding="UTF-8" standalone="no"?>
<!-- Created with Inkscape (http://www.inkscape.org/) -->

<svg
   version="1.1"
   id="svg2"
   width="512"
   height="512"
   viewBox="0 0 512 512"
   sodipodi:docname="decen.svg"
   inkscape:version="1.1.2 (0a00cf5339, 2022-02-04)"
   xmlns:inkscape="http://www.inkscape.org/namespaces/inkscape"
   xmlns:sodipodi="http://sodipodi.sourceforge.net/DTD/sodipodi-0.dtd"
   xmlns="http://www.w3.org/2000/svg"
   xmlns:svg="http://www.w3.org/2000/svg">
  <defs
     id="defs6" />
  <sodipodi:namedview
     id="namedview4"
     pagecolor="#ffffff"
     bordercolor="#666666"
     borderopacity="1.0"
     inkscape:pageshadow="2"
     inkscape:pageopacity="0.0"
     inkscape:pagecheckerboard="0"
     showgrid="false"
     width="512px"
     inkscape:zoom="0.85058594"
     inkscape:cx="469.67623"
     inkscape:cy="324.4822"
     inkscape:window-width="1920"
     inkscape:window-height="1043"
     inkscape:window-x="1920"
     inkscape:window-y="0"
     inkscape:window-maximized="1"
     inkscape:current-layer="g8" />
  <g
     inkscape:groupmode="layer"
     inkscape:label="Image"
     id="g8">
    <path
       style="fill:#7e3af2;stroke-width:0.765521;fill-opacity:1"
       d="m 255.05197,511.53649 c -0.9522,-0.29785 -4.33557,-1.88213 -7.5186,-3.52063 -3.18303,-1.63849 -11.80221,-5.88845 -19.15373,-9.44437 -7.35153,-3.55592 -16.74978,-8.13474 -20.88502,-10.17516 -4.13523,-2.04041 -11.27791,-5.49417 -15.87261,-7.67502 -4.5947,-2.18085 -15.30872,-7.38648 -23.80892,-11.56807 -14.3162,-7.04271 -32.6503,-16.03423 -53.04794,-26.01609 -4.5947,-2.24848 -13.05313,-6.35437 -18.796506,-9.12421 -5.743383,-2.76984 -19.652803,-9.54123 -30.909823,-15.04753 -11.25702,-5.5063 -25.35441,-12.37422 -31.32752,-15.26203 C 9.4181714,391.94874 3.1663615,388.65627 1.7745415,386.87362 c -1.32345996,-1.6951 -1.48175996,-4.76074 -1.70092996,-32.93985 -0.16212,-20.84482 0.0581,-32.00544 0.66901,-33.91064 1.53801996,-4.79619 7.83723986,-6.9263 13.37348946,-4.52231 4.49414,1.95148 4.54539,2.25116 4.99567,29.20898 l 0.4177,25.00731 6.25021,-3.19454 c 18.61378,-9.51368 26.21335,-12.798 29.61325,-12.798 4.08336,0 7.17782,1.40909 60.625319,27.60632 3.90549,1.91428 14.05561,6.8517 22.55581,10.97206 41.07923,19.91261 96.85654,47.13924 107.24246,52.34835 l 11.58908,5.81256 26.00395,-13.06999 c 29.23775,-14.69537 49.43185,-24.80988 92.18183,-46.17064 l 29.42027,-14.70034 0.0276,-9.2947 c 0.0152,-5.11208 -0.17655,-9.2947 -0.42609,-9.2947 -0.24952,0 -8.80194,4.20753 -19.00536,9.35005 -16.25735,8.19372 -63.03885,31.62516 -102.50944,51.34391 -21.12716,10.55472 -26.71,13.11963 -27.794,12.76935 -0.96248,-0.31102 -45.53734,-21.68294 -78.30184,-37.54272 -8.04073,-3.89214 -30.59655,-14.77092 -50.12404,-24.17507 -27.577956,-13.28113 -35.924159,-17.62034 -37.384169,-19.43612 -1.80971,-2.2507 -1.87966,-2.9192 -1.87966,-17.96495 v -15.62727 l -37.38417,-17.82922 c -20.5613,-9.80607 -39.43966,-18.77929 -41.9518996,-19.94049 -8.49479986,-3.92641 -7.96328986,-1.49332 -7.96328986,-36.45373 v -30.52404 l 2.30063996,-1.6619 c 3.3732499,-2.43669 7.8031595,-2.94198 11.4239695,-1.30305 4.38957,1.9869 5.04564,3.7131 5.05959,13.31246 l 0.0123,8.47269 26.94167,12.91624 c 14.81792,7.10393 28.25743,13.5067 29.86557,14.22838 2.62164,1.17649 16.40089,7.95814 33.236809,16.35795 3.34746,1.67012 6.3197,3.03658 6.60498,3.03658 0.28527,0 0.27038,-5.0577 -0.0331,-11.23934 -0.60158,-12.25347 -0.0307,-14.86743 3.72978,-17.07918 2.24033,-1.31765 7.52641,-1.50454 10.19095,-0.36032 4.88055,2.09584 4.70981,0.74024 4.73005,37.5557 l 0.0186,33.77963 9.81596,4.85501 c 5.39877,2.67025 17.33456,8.48625 26.52397,12.92444 42.09195,20.3291 57.48723,27.82177 66.31522,32.27473 5.22938,2.63778 9.83452,4.79596 10.23365,4.79596 0.39917,0 0.72573,-6.28273 0.72573,-13.96163 v -13.96163 l -15.66385,-7.60014 c -8.61507,-4.18008 -28.25742,-13.6408 -43.64968,-21.02382 -21.03182,-10.08809 -28.45299,-13.99447 -29.86557,-15.72076 l -1.87965,-2.29707 v -39.38758 -39.38757 l -9.18599,-4.52696 c -5.05228,-2.48984 -11.99813,-6.02847 -15.43521,-7.86364 -3.43708,-1.83517 -9.92341,-5.02584 -14.41408,-7.09038 -4.49068,-2.06453 -27.337299,-13.13963 -50.770289,-24.61131 -23.43299,-11.47169 -43.8272,-21.44955 -45.32048,-22.17303 l -2.71506,-1.31542 v 11.85082 11.85083 l 4.80356,2.43446 c 2.64195,1.33895 8.37489,4.15747 12.73986,6.26337 4.36497,2.10591 19.40218,9.35936 33.41602,16.11878 48.124379,23.21227 45.113199,21.47915 45.108509,25.96273 -0.007,6.11066 -5.52622,9.75414 -11.96253,7.89614 -1.64743,-0.47557 -4.798146,-1.83364 -7.001586,-3.01792 -2.203453,-1.18429 -4.946103,-2.47048 -6.094773,-2.8582 -1.14868,-0.38773 -21.04652,-9.81494 -44.21742,-20.94936 -26.64521,-12.80395 -42.7646095,-20.959 -43.8585395,-22.18872 -1.66825996,-1.87534 -1.73873996,-2.90677 -1.98689996,-29.07644 -0.17378,-18.32496 0.0418,-27.98952 0.66395,-29.77352 1.06730996,-3.06022 0.31995996,-2.61892 24.65535946,-14.55857 9.64888,-4.73401 21.49068,-10.57683 26.31512,-12.98403 4.82444,-2.40721 28.88397,-14.39703 53.465639,-26.64405 C 129.73971,61.92754 158.68634,47.47394 169.48389,42.05546 187.39782,33.06579 197.268,28.16116 240.0246,7.00279 247.80774,3.15125 255.00372,0 256.01568,0 c 1.01194,0 7.80148,3.00047 15.08785,6.66771 12.72729,6.40566 60.2472,29.98468 85.5101,42.42946 6.66232,3.28193 17.37633,8.57223 23.80892,11.75621 6.43258,3.18398 25.04113,12.32799 41.35233,20.32 16.3112,7.99202 38.11515,18.72581 48.45323,23.85285 10.33809,5.12705 23.38248,11.57229 28.98754,14.32276 5.60506,2.75046 10.7741,5.69986 11.48676,6.55422 1.12064,1.34347 1.29574,5.52286 1.29574,30.92687 0,26.17457 -0.15188,29.58938 -1.39456,31.35584 -1.81371,2.57821 -4.66743,3.81413 -8.80674,3.81413 -2.70778,0 -3.79201,-0.42846 -5.75681,-2.27496 l -2.42071,-2.27495 -0.16678,-14.54478 c -0.0917,-7.99963 -0.13028,-15.41287 -0.0857,-16.47387 0.0446,-1.061 -0.0745,-1.92909 -0.26472,-1.92909 -0.49896,0 -20.13345,9.57332 -36.65816,17.87367 -7.81099,3.92346 -18.24306,9.11201 -23.18236,11.53012 l -8.98056,4.39656 v 21.3893 c 0,11.76411 0.28195,21.28408 0.62655,21.15547 0.3446,-0.12861 14.63021,-7.26536 31.74581,-15.85946 17.11559,-8.59409 32.05866,-15.92552 33.20681,-16.29208 5.16402,-1.64863 12.11309,2.22545 12.11309,6.75299 0,5.12719 -0.78976,5.65526 -31.12187,20.80977 -51.05815,25.50966 -47.88875,24.15737 -53.59494,22.86717 -4.108,-0.92886 -9.49582,-5.27302 -10.19843,-8.22293 -0.47473,-1.99317 -0.6414,-2.08138 -2.29581,-1.21517 -0.98116,0.51371 -17.76096,8.90603 -37.28845,18.64958 -67.3169,33.58885 -99.54964,49.97552 -99.92714,50.80158 -0.20823,0.45566 -0.27165,4.34472 -0.14092,8.64235 l 0.23769,7.81388 19.63191,-10.20085 c 10.79755,-5.61045 28.09035,-14.4906 38.42843,-19.73364 10.33808,-5.24305 24.2475,-12.37349 30.90982,-15.84542 6.66232,-3.47194 14.22218,-7.26605 16.79967,-8.43137 4.41358,-1.99544 4.89003,-2.06753 8.18512,-1.23855 5.76378,1.45005 8.22831,6.20629 5.50625,10.62637 -1.76749,2.87006 -2.72521,3.39078 -55.55306,30.20475 -8.95967,4.54769 -27.00432,13.77816 -40.09923,20.51217 l -23.80891,12.24366 -0.22544,15.25749 -0.22545,15.25748 2.31395,-1.28615 c 15.76412,-8.76217 101.76908,-51.65586 104.25216,-51.99421 3.97118,-0.54114 8.23069,1.30599 9.92485,4.30387 1.2856,2.27493 1.32783,2.93596 0.3528,5.52283 -1.31267,3.48269 3.6731,0.72491 -49.14312,27.18251 -22.28432,11.16302 -41.45676,20.77555 -42.60544,21.36116 -1.14867,0.58561 -7.06019,3.44494 -13.1367,6.35406 -6.07652,2.90912 -11.33621,5.66651 -11.68821,6.12752 -0.78978,1.03437 -0.87309,16.62083 -0.0889,16.6213 0.31128,1.9e-4 7.45395,-3.51613 15.87261,-7.81403 29.65792,-15.14099 88.44615,-44.75771 116.54675,-58.7147 l 5.16903,-2.56735 0.26108,-13.55902 0.26108,-13.55902 3.12048,-2.3998 c 3.51248,-2.70126 4.99172,-2.8907 9.84341,-1.26062 4.79352,1.61054 5.83262,3.71336 5.83262,11.80349 0,4.40105 0.31496,6.69896 0.91821,6.69896 0.505,0 4.54626,-1.80975 8.98055,-4.02167 4.43429,-2.21193 8.71417,-4.34269 9.51083,-4.73504 0.79666,-0.39235 6.05969,-3.11214 11.69561,-6.04399 5.63592,-2.93186 16.53303,-8.45606 24.21579,-12.27602 l 13.96865,-6.94538 0.0243,-21.21997 c 0.0151,-13.20194 -0.28077,-21.21996 -0.78307,-21.21996 -0.44405,0 -7.9648,3.62719 -16.71278,8.06044 -8.74798,4.43324 -23.13992,11.72705 -31.9821,16.20846 -8.84219,4.4814 -17.47146,8.74593 -19.17617,9.47672 -4.46327,1.91334 -7.65352,1.70276 -10.8803,-0.71821 -2.41796,-1.81413 -2.72824,-2.46149 -2.72824,-5.69212 0,-3.32916 0.26539,-3.8359 3.06096,-5.84481 1.68353,-1.20978 19.54022,-10.5377 39.68153,-20.7287 20.14132,-10.191 37.74836,-19.38644 39.12677,-20.43431 3.57601,-2.71847 5.67707,-3.47653 9.63573,-3.47653 2.84385,0 3.99932,0.43602 6.32042,2.38506 l 2.84037,2.38505 v 33.80864 c 0,37.8916 0.28269,36.07767 -6.14326,39.41797 -5.66343,2.94392 -47.71293,23.80737 -59.38914,29.46676 -5.94751,2.88272 -10.94304,5.56724 -11.10118,5.96559 -0.15813,0.39836 1.99829,1.70665 4.79204,2.90731 6.79769,2.92144 29.73039,13.87459 42.35727,20.23076 5.60851,2.82323 10.4396,5.13314 10.73579,5.13314 0.29617,0 0.45694,-9.39115 0.35723,-20.86923 -0.23813,-27.41556 -0.44669,-25.20735 2.60699,-27.60264 4.33715,-3.40206 12.50202,-2.40623 14.78621,1.80341 0.72428,1.33481 0.99805,10.10113 0.99805,31.95918 v 30.11985 l -2.29736,2.08569 c -1.26354,1.14714 -12.63543,7.08912 -25.27086,13.20441 -29.29997,14.18057 -82.82161,40.53507 -126.1455,62.11508 -18.60855,9.26908 -43.79587,21.80892 -55.97184,27.86632 -50.30873,25.02798 -44.75837,22.47984 -47.26062,21.69714 z m -7.1362,-33.86658 c -0.0923,-6.29285 -0.44359,-12.05381 -0.78055,-12.80213 -0.55543,-1.23342 -14.17688,-8.10105 -70.55042,-35.5699 -8.27047,-4.0299 -28.94663,-14.11365 -45.94703,-22.40831 -17.00041,-8.29466 -37.112679,-18.07988 -44.693939,-21.74492 -7.58126,-3.66505 -17.44616,-8.44587 -21.92201,-10.62406 -4.47584,-2.17819 -8.36576,-3.96034 -8.64426,-3.96034 -0.45727,0 -24.56176,11.73625 -25.29634,12.31655 -0.32696,0.25828 0.75344,0.81448 17.85189,9.19037 17.96745,8.80157 24.62353,12.05046 55.136439,26.91256 16.08146,7.83289 38.26134,18.6422 49.28863,24.02067 11.02729,5.37848 23.80892,11.6012 28.40362,13.82829 23.3847,11.33472 31.54333,15.3098 48.03554,23.4041 9.87861,4.84837 18.25928,8.82951 18.62371,8.84696 0.36443,0.0175 0.58706,-5.11698 0.49472,-11.40984 z m 44.84804,-1.37137 c 11.91415,-5.96297 31.06035,-15.50039 42.54711,-21.19427 11.48675,-5.69387 23.51652,-11.68848 26.73282,-13.32134 3.21629,-1.63287 11.29879,-5.65264 17.96111,-8.93283 6.66232,-3.28019 21.85389,-10.78383 33.75903,-16.67475 20.17645,-9.98375 48.04893,-23.63861 62.09295,-30.41963 3.32552,-1.60571 6.05101,-3.1481 6.05665,-3.42756 0.006,-0.27945 -1.21153,-1.03601 -2.70481,-1.68123 -1.49328,-0.64523 -10.79755,-5.12857 -20.67616,-9.96298 -19.88464,-9.73118 -33.49097,-16.25789 -33.89305,-16.25789 -0.14456,0 -0.37831,6.44905 -0.51945,14.33123 -0.23663,13.21435 -0.39181,14.48541 -1.99117,16.30956 -1.01253,1.15484 -11.27087,6.76299 -24.64432,13.47286 -12.60038,6.32199 -47.0633,23.6162 -76.58426,38.43158 l -53.67449,26.93705 v 12.68225 12.68224 l 1.93798,-1.06626 c 1.06588,-0.58645 11.68591,-5.94506 23.60006,-11.90803 z m -44.75226,-74.11402 c 0,-3.82663 -0.22561,-7.45119 -0.50136,-8.05458 -0.27574,-0.60339 -3.94106,-2.73555 -8.14515,-4.73812 -4.20409,-2.00258 -16.66613,-8.06022 -27.69341,-13.46142 -11.02729,-5.4012 -32.64328,-15.87295 -48.03554,-23.27056 -15.39226,-7.39761 -29.90715,-14.44587 -32.25532,-15.6628 -2.34817,-1.21693 -4.76086,-2.2126 -5.36155,-2.2126 -1.22069,0 -16.69514,7.16565 -16.66372,7.71635 0.011,0.19291 13.07449,6.59566 29.02996,14.22833 15.95546,7.63267 46.67866,22.51529 68.27376,33.07251 21.59511,10.55721 39.73374,19.22766 40.30808,19.26766 0.77103,0.0537 1.04425,-1.74765 1.04425,-6.88477 z m -0.20024,-105.10498 -0.21746,-31.39152 -12.11331,-6.02258 c -6.66232,-3.31242 -17.18836,-8.49346 -23.39121,-11.51342 -6.20285,-3.01997 -16.58368,-8.12261 -23.06851,-11.33922 -6.48483,-3.2166 -12.0298,-5.84837 -12.32216,-5.84837 -0.29236,0 -0.53156,14.1365 -0.53156,31.41444 v 31.41443 l 23.60007,11.40669 c 12.98003,6.27369 28.86309,14.0436 35.29567,17.26645 6.43259,3.22286 11.98143,5.89234 12.33077,5.93218 0.34933,0.0399 0.53729,-14.05375 0.4177,-31.31908 z m -131.85485,6.21719 0.11264,-7.63717 -6.49978,-3.13374 C 57.437001,267.39127 20.569841,249.90457 19.711081,249.90457 c -0.35971,0 -0.54772,3.52296 -0.4178,7.82879 l 0.2362,7.8288 47.20014,22.64082 c 25.96007,12.45246 47.630799,22.6611 48.157169,22.68587 0.65733,0.0309 0.99231,-2.34663 1.06967,-7.59212 z m 227.63924,-51.2877 c 7.30169,-3.66527 24.02579,-12.04204 37.16464,-18.61505 l 23.88883,-11.95093 0.22905,-11.72424 c 0.12598,-6.44833 -0.0189,-11.72424 -0.32183,-11.72424 -0.50865,0 -12.71863,6.00419 -40.00645,19.67297 -5.97312,2.992 -20.44643,10.15245 -32.16293,15.91211 -29.14185,14.32571 -52.80743,26.06507 -59.31344,29.42254 l -5.4301,2.80225 -0.22772,12.30786 -0.22771,12.30786 31.56592,-15.87351 c 17.36126,-8.73042 37.54005,-18.87235 44.84174,-22.53762 z m -48.58321,-17.98698 c 33.96626,-16.91381 55.72925,-27.70392 71.20825,-35.30511 3.67576,-1.80505 17.39722,-8.60618 30.49212,-15.11363 13.09491,-6.50746 27.75619,-13.7741 32.58062,-16.1481 4.82444,-2.374 17.60607,-8.67764 28.40363,-14.00809 10.79755,-5.33045 23.10993,-11.4084 27.36084,-13.50654 4.25092,-2.09816 7.90653,-4.0561 8.12357,-4.35099 0.42069,-0.57157 -19.98138,-10.89589 -65.97654,-33.38695 C 395.86382,86.87718 345.88055,62.22775 325.22441,51.91054 317.90682,48.25559 301.95755,40.36863 289.78158,34.38398 277.60562,28.39932 265.76382,22.52002 263.46646,21.31885 c -8.15338,-4.26299 -6.10784,-4.59865 -23.10509,3.79139 -8.42784,4.16008 -28.29293,14.03294 -44.14466,21.93969 -15.85172,7.90676 -31.82876,15.85571 -35.50452,17.66434 -8.80215,4.33102 -25.52684,12.65206 -45.11163,22.4444 -28.065619,14.03274 -38.710549,19.31719 -67.422889,33.47065 -15.48748,7.6344 -28.17475,14.19639 -28.19392,14.58221 -0.0192,0.38581 1.93839,1.62406 4.35014,2.75164 4.89151,2.28697 93.822459,45.82592 107.556979,52.6579 4.82444,2.39984 22.49316,11.03593 39.26383,19.19133 16.77066,8.1554 42.89782,20.95187 58.06034,28.43662 15.16252,7.48474 28.04248,13.64269 28.62213,13.68431 0.57965,0.0416 17.30854,-8.01844 37.17532,-17.91128 z m -41.72858,-2.36211 c -1.00571,-0.3402 -10.02803,-4.63955 -20.04962,-9.55411 -10.02158,-4.91456 -25.5517,-12.51362 -34.51137,-16.88679 -8.95968,-4.37318 -17.32412,-8.89753 -18.58767,-10.05412 -2.66578,-2.44014 -3.15566,-7.05299 -1.02082,-9.61232 1.1958,-1.43357 12.82075,-7.44671 52.18911,-26.99541 20.66915,-10.26345 20.93198,-10.37129 25.22938,-10.35223 3.73142,0.0165 6.37066,1.05815 20.71765,8.17641 3.9055,1.93771 12.92783,6.36702 20.04962,9.8429 7.12179,3.47589 17.05566,8.3788 22.07527,10.89535 l 9.12656,4.57555 5.18485,-2.66477 c 2.85168,-1.46562 11.52635,-5.80748 19.27706,-9.64857 7.75072,-3.84109 21.23488,-10.53344 29.96482,-14.87188 8.72994,-4.33846 19.21751,-9.45496 23.30572,-11.37002 4.08821,-1.91505 8.90613,-4.26273 10.70647,-5.21706 l 3.27336,-1.73514 -1.93476,-1.26577 c -1.06412,-0.69618 -3.25052,-1.82234 -4.85867,-2.50259 -1.60814,-0.68025 -11.04462,-5.29402 -20.96994,-10.25283 -9.92532,-4.9588 -18.63748,-9.20659 -19.36036,-9.43952 -1.15144,-0.37101 -1.34798,0.85122 -1.58587,9.8622 l -0.27156,10.28569 -2.72823,2.04516 c -3.28207,2.46035 -7.72292,2.72478 -11.41725,0.67984 -4.41061,-2.44143 -4.58939,-3.25106 -4.62142,-20.9294 -0.0324,-17.86571 0.34409,-19.68267 4.67271,-22.55162 4.05721,-2.68906 8.23498,-1.8196 19.942,4.15029 5.51364,2.81163 22.61847,11.2556 38.01072,18.76437 15.39226,7.50877 28.69569,14.17358 29.56318,14.81068 2.31291,1.69868 4.02345,5.57333 3.44193,7.79658 -0.78723,3.00966 -3.65092,4.77128 -24.2334,14.90729 -10.56782,5.20421 -31.24398,15.40837 -45.94703,22.6759 -14.70305,7.26753 -32.93567,16.25513 -40.51693,19.97245 -7.58126,3.71732 -19.59263,9.65565 -26.69192,13.19628 -8.71714,4.3475 -13.73476,6.43667 -15.45491,6.43489 -6.39854,-0.006 -11.18023,-5.72 -8.80946,-10.52605 1.27065,-2.57589 3.98476,-4.35951 12.67298,-8.32825 3.52585,-1.61059 7.25813,-3.50461 8.29397,-4.20893 l 1.88334,-1.28057 -3.69927,-1.78953 c -2.03459,-0.98423 -13.9798,-6.8172 -26.54491,-12.96214 l -22.84564,-11.17262 -12.24118,6.11279 c -6.73265,3.36204 -17.69217,8.81944 -24.35449,12.12756 -6.66232,3.30811 -12.65308,6.28677 -13.3128,6.61923 -0.8808,0.44388 0.89486,1.60387 6.6832,4.36598 4.33549,2.06883 15.40131,7.44323 24.59071,11.9431 9.18941,4.49988 18.3997,8.99 20.46732,9.97804 5.21117,2.49025 7.58195,4.83602 8.08433,7.99902 0.51578,3.2474 -1.82067,6.19029 -6.10926,7.69493 -3.12455,1.09625 -4.13888,1.13541 -6.72752,0.25976 z M 124.76047,170.57982 c -9.63265,-4.66103 -21.83712,-10.60603 -27.121026,-13.2111 -5.283913,-2.60508 -14.085563,-6.91804 -19.559233,-9.58436 -10.5643,-5.14607 -13.01269,-7.27772 -13.01827,-11.33416 -0.004,-3.11702 3.06247,-5.70675 11.69249,-9.87374 7.20628,-3.47954 10.8063,-5.25903 44.276229,-21.88583 64.0308,-31.80848 59.82464,-30.01978 65.15202,-27.70649 3.43319,1.49078 5.02163,3.7301 5.02163,7.0793 0,3.62734 -2.06115,5.49171 -10.31879,9.33365 -12.72989,5.9227 -86.122799,42.75074 -86.327749,43.31866 -0.26684,0.73937 14.170049,7.96584 15.913979,7.96584 0.69205,0 9.08386,-3.99775 18.64845,-8.88388 32.27798,-16.48942 64.03668,-32.62702 90.48773,-45.9797 14.47332,-7.30623 26.80271,-13.8132 27.39864,-14.45993 0.81761,-0.8873 1.04633,-4.63021 0.93195,-15.2509 -0.0934,-8.67044 0.18261,-14.59936 0.71876,-15.44055 1.5775,-2.4751 4.01925,-3.79234 7.76933,-4.19131 4.06572,-0.43254 -0.86639,-2.67816 57.74445,26.29144 9.99586,4.94066 18.36514,9.57482 19.84077,10.98606 5.25802,5.02859 2.06395,11.97912 -5.82892,12.68413 -3.22703,0.28824 -4.41066,-0.0209 -8.74461,-2.28397 -2.75682,-1.43952 -11.55867,-5.87989 -19.55965,-9.86747 -8.00099,-3.98759 -15.14366,-7.65696 -15.87261,-8.15418 -0.72895,-0.49722 -3.01705,-1.65683 -5.08467,-2.57692 -2.06761,-0.9201 -5.33075,-2.56735 -7.25142,-3.66056 -1.92066,-1.09322 -3.87402,-1.98767 -4.34079,-1.98767 -0.56168,0 -0.7663,7.39631 -0.60512,21.8723 l 0.24355,21.87229 4.93264,2.39166 c 33.98146,16.47633 36.79798,17.98696 38.4068,20.59937 2.73223,4.4366 -0.0933,9.69219 -5.93941,11.04763 -3.68785,0.85504 -5.57044,0.4108 -11.66214,-2.75188 -2.75682,-1.43129 -11.66232,-5.81643 -19.79,-9.74477 l -14.77761,-7.14243 -11.53751,5.74843 c -6.34564,3.16163 -14.73292,7.41508 -18.63842,9.45211 -7.68528,4.00849 -11.67768,5.02471 -15.25438,3.88284 -2.81715,-0.89939 -5.62439,-4.60766 -5.62439,-7.42964 0,-4.25975 2.30214,-5.93008 21.21123,-15.38993 9.97862,-4.99211 18.38866,-9.41041 18.68897,-9.81844 0.45065,-0.61227 0.37331,-11.77346 -0.0835,-12.05342 -0.1367,-0.0838 -4.12889,1.93986 -46.50614,23.57393 -10.79755,5.51228 -31.20955,15.86706 -45.35998,23.01063 -15.94013,8.04706 -25.43122,13.23758 -24.9478,13.64351 0.42914,0.36035 5.24003,2.79024 10.69085,5.39974 13.06303,6.25373 15.42076,9.00994 12.35225,14.43981 -1.38953,2.45881 -5.45715,4.54451 -8.8629,4.54451 -1.09545,0 -9.873,-3.81357 -19.50566,-8.47461 z"
       id="path12" />
  </g>
</svg>
