<?xml version="1.0" encoding="UTF-8" standalone="no"?>
<!-- Created with Inkscape (http://www.inkscape.org/) -->

<svg
   width="512"
   height="512"
   viewBox="0 0 135.46666 135.46667"
   version="1.1"
   id="svg5"
   inkscape:version="1.1.2 (0a00cf5339, 2022-02-04)"
   sodipodi:docname="logo.svg"
   xmlns:inkscape="http://www.inkscape.org/namespaces/inkscape"
   xmlns:sodipodi="http://sodipodi.sourceforge.net/DTD/sodipodi-0.dtd"
   xmlns="http://www.w3.org/2000/svg"
   xmlns:svg="http://www.w3.org/2000/svg">
  <sodipodi:namedview
     id="namedview7"
     pagecolor="#ffffff"
     bordercolor="#666666"
     borderopacity="1.0"
     inkscape:pageshadow="2"
     inkscape:pageopacity="0.0"
     inkscape:pagecheckerboard="0"
     inkscape:document-units="mm"
     showgrid="false"
     units="px"
     width="512px"
     inkscape:zoom="1.5433538"
     inkscape:cx="257.87995"
     inkscape:cy="237.14589"
     inkscape:window-width="1920"
     inkscape:window-height="1043"
     inkscape:window-x="1920"
     inkscape:window-y="0"
     inkscape:window-maximized="1"
     inkscape:current-layer="layer1" />
  <defs
     id="defs2">
    <inkscape:path-effect
       effect="fill_between_strokes"
       id="path-effect9"
       is_visible="true"
       lpeversion="1"
       linkedpath=""
       secondpath=""
       reversesecond="false"
       join="true"
       close="true" />
  </defs>
  <g
     inkscape:label="Layer 1"
     inkscape:groupmode="layer"
     id="layer1">
    <g
       id="g341"
       style="fill:#7e3af2;fill-opacity:1;stroke:#7e3af2;stroke-width:3;stroke-linecap:square;stroke-linejoin:bevel;stroke-miterlimit:4;stroke-dasharray:none;stroke-opacity:1;paint-order:fill markers stroke"
       transform="matrix(0.97812677,0,0,0.97777251,1.471544,1.509311)">
      <path
         d="m 60.97356,41.925718 c -3.489765,2.012639 -6.546158,3.799146 -6.751439,4.002671 -0.36494,0.293982 -0.41056,1.017629 -0.456175,7.462607 l -0.06843,7.10078 -6.021553,3.459932 c -3.307296,1.899581 -6.089985,3.595627 -6.20403,3.753928 -0.114045,0.180905 -0.20528,3.753906 -0.20528,7.937492 0,6.331912 0.04565,7.666138 0.319325,7.937507 0.638652,0.633192 13.115128,7.620903 13.61693,7.620903 0.250894,0 3.147628,-1.537752 6.409302,-3.392104 3.23887,-1.876953 5.998748,-3.392088 6.112794,-3.392088 0.114039,0 2.873924,1.537755 6.135598,3.392088 3.261675,1.876966 6.135599,3.392104 6.409301,3.392104 0.524609,0 12.544879,-6.761578 13.411618,-7.530452 0.501799,-0.452271 0.501799,-0.474891 0.501799,-8.118413 0,-7.010325 -0.0228,-7.666132 -0.41056,-8.050558 -0.228091,-0.226146 -3.033592,-1.899585 -6.272448,-3.753926 l -5.86187,-3.346867 v -7.055553 c 0,-6.467591 -0.04565,-7.100784 -0.38775,-7.41738 -0.707077,-0.610572 -13.160747,-7.643518 -13.525687,-7.643518 -0.20528,0 -3.238869,1.650813 -6.751445,3.640847 z m 11.564125,2.035253 c 2.623025,1.49252 4.767063,2.804133 4.767063,2.87198 -0.02283,0.271359 -9.374463,5.495192 -9.693789,5.427347 -0.593035,-0.135681 -9.465702,-5.269055 -9.397277,-5.449968 0.04565,-0.135681 9.191997,-5.540418 9.465702,-5.585646 0.04565,0 2.212462,1.221153 4.858301,2.736287 z m -8.27964,9.633546 2.098423,1.221159 v 5.540421 c 0,4.364492 -0.06843,5.540419 -0.273704,5.449958 -0.159668,-0.06784 -2.349326,-1.288985 -4.858304,-2.713672 l -4.561786,-2.577987 -0.06843,-5.676106 -0.04565,-5.6761 2.782689,1.605587 c 1.551007,0.881939 3.763468,2.148327 4.926726,2.82674 z m 14.483662,6.874652 c -0.22809,0.226135 -9.37446,5.404733 -9.534126,5.404733 -0.06843,0 -0.09123,-2.510146 -0.06843,-5.563038 l 0.06843,-5.585646 4.789871,-2.736288 4.789876,-2.758906 0.06843,5.540425 c 0.02283,3.030268 -0.02283,5.608259 -0.114045,5.69872 z m 6.386491,5.065527 c 2.600201,1.492521 4.721424,2.758899 4.721424,2.849353 0,0.06784 -2.166843,1.379453 -4.78985,2.871974 l -4.789868,2.758906 -4.789872,-2.758906 c -2.645833,-1.515135 -4.789871,-2.826747 -4.789871,-2.894581 0,-0.135687 9.420086,-5.608266 9.602555,-5.563038 0.06843,0 2.23527,1.243771 4.835482,2.736292 z m -25.044184,0.04526 c 2.577408,1.469906 4.675826,2.713671 4.675826,2.804126 0,0.06784 -2.166842,1.379446 -4.789871,2.871973 l -4.789871,2.758899 -4.789877,-2.758899 c -2.645833,-1.515141 -4.78987,-2.826747 -4.78987,-2.894587 0,-0.180908 9.169187,-5.404733 9.534126,-5.404733 0.159667,-0.0226 2.372128,1.175927 4.949537,2.623221 z M 49.02169,73.585294 53.811561,76.3442 v 5.630866 5.63088 L 52.83078,87.0406 C 52.306174,86.724 50.139326,85.480226 47.995289,84.236467 l -3.877515,-2.238781 -0.06844,-5.563038 c -0.02282,-3.0755 0,-5.585646 0.06844,-5.585646 0.06843,0 2.280887,1.243765 4.903916,2.736285 z m 17.289157,2.84936 -0.06843,5.563032 -3.877515,2.238781 c -2.121234,1.243772 -4.310886,2.48754 -4.835491,2.804133 l -0.980787,0.565346 V 81.99768 76.3668 l 4.744257,-2.736286 c 2.600219,-1.515133 4.789878,-2.758906 4.903915,-2.758906 0.09124,-0.0226 0.136857,2.48754 0.114046,5.56304 z m 7.800651,-2.84936 4.789875,2.758906 v 5.630846 c 0,5.291666 -0.02283,5.60826 -0.387756,5.404733 -0.228085,-0.135687 -2.417743,-1.379452 -4.858295,-2.804132 l -4.447741,-2.55537 -0.06843,-5.585653 c -0.02283,-3.075499 0,-5.585646 0.06843,-5.585646 0.04565,0 2.258083,1.243766 4.903917,2.736286 z m 17.289137,2.84936 -0.06843,5.563032 -3.877507,2.238781 C 85.333482,85.480226 83.143831,86.724 82.619226,87.0406 l -0.980777,0.565346 v -5.630902 -5.63088 l 4.744237,-2.736286 c 2.600201,-1.492521 4.789863,-2.736286 4.903903,-2.736286 0.09124,-0.0226 0.136859,2.487527 0.114052,5.563032 z"
         id="path9"
         style="opacity:1;fill:#7e3af2;fill-opacity:1;stroke:#7e3af2;stroke-width:3;stroke-linecap:square;stroke-linejoin:bevel;stroke-miterlimit:4;stroke-dasharray:none;stroke-opacity:1;paint-order:fill markers stroke" />
      <path
         d="m 71.338656,0.75946694 c 0.247972,0.13183 0.247972,0.13183 0.613529,0.26474996 1.953522,0.77356 3.596201,2.44707 4.44141,4.249139 0.07916,0.20374 0.152505,0.409663 0.221197,0.616669 0.05239,0.212457 0.05239,0.212457 0.188597,0.323591 0.01746,0.11222 0.03375,0.224441 0.05123,0.341018 0.05122,0.412928 0.05122,0.412928 0.183944,0.759398 0.160655,0.514254 0.147852,1.023063 0.143195,1.555838 0.0013,0.09697 0.0021,0.195023 0.0021,0.29526 -0.0013,0.644996 -0.09314,1.2169941 -0.264277,1.8423811 0.153676,0.03595 0.307348,0.07191 0.465683,0.108955 0,0.07191 0,0.143817 0,0.217902 0.08033,0.0098 0.160658,0.0196 0.243316,0.0294 0.420272,0.09915 0.731115,0.273472 1.102493,0.481569 0.621683,0.342109 1.250349,0.655892 1.897639,0.95333 0.930193,0.433633 1.852237,0.886872 2.738189,1.395681 0.508754,0.293082 1.033806,0.522971 1.585632,0.735424 0,0.07191 0,0.143817 0,0.217906 0.06054,0.01091 0.122245,0.02178 0.185108,0.0327 0.862669,0.23425 1.71486,0.716906 2.478574,1.159253 0.566963,0.327944 1.157211,0.599238 1.755609,0.873797 0.615857,0.285452 1.208431,0.600326 1.799846,0.929361 0.401646,0.220084 0.813771,0.41075 1.231718,0.600329 0.291049,0.13619 0.582096,0.272377 0.873146,0.408567 0.144362,0.06755 0.288721,0.135104 0.433081,0.202653 0.107106,0.05012 0.214214,0.100238 0.323646,0.151444 0,0.07191 0,0.143817 0,0.217905 0.08615,0.01198 0.171138,0.02508 0.25962,0.03706 0.335288,0.07518 0.537855,0.176501 0.824248,0.350823 0.743919,0.433633 1.52626,0.787726 2.312091,1.148357 0.30502,0.140547 0.607713,0.282186 0.911566,0.424916 0,0.07191 0,0.143817 0,0.217902 0.08498,0.01198 0.169974,0.02397 0.258449,0.03595 0.34227,0.07736 0.55998,0.187401 0.85452,0.36608 0.53553,0.311604 1.083855,0.576359 1.648495,0.836753 0.9267,0.431451 1.84525,0.879245 2.72538,1.390233 0.66243,0.381332 1.36909,0.672235 2.08042,0.966404 0,0.07191 0,0.143817 0,0.217906 0.085,0.01198 0.16997,0.02397 0.25845,0.03595 0.34227,0.07736 0.55998,0.187397 0.85452,0.36608 0.53553,0.311604 1.08387,0.576354 1.6485,0.836753 0.92787,0.432538 1.84874,0.882511 2.73237,1.390229 0.63099,0.361722 1.29226,0.663517 1.95701,0.966404 0.23284,0.108955 0.46568,0.217906 0.69852,0.326857 0,0.07191 0,0.143816 0,0.217905 0.0803,0.0098 0.1595,0.0196 0.24215,0.02833 0.4226,0.100238 0.76255,0.287634 1.13276,0.496822 0.49479,0.270203 0.98608,0.536045 1.50414,0.765934 0.23517,0.112221 0.46335,0.229889 0.6927,0.353005 0.078,0.04031 0.15484,0.08172 0.23517,0.124208 0.15716,0.08171 0.31317,0.165604 0.46801,0.251676 0.41445,0.227711 0.41445,0.227711 0.87431,0.205923 0.21537,-0.162339 0.42027,-0.325769 0.62052,-0.50227 0.85102,-0.708189 1.74978,-1.205011 2.83131,-1.535137 0.24216,-0.05884 0.24216,-0.05884 0.36324,-0.188488 2.26785,-0.679861 4.83373,-0.499 6.95839,0.470674 1.2876,0.628656 1.2876,0.628656 1.77307,0.945704 0,0.07191 0,0.143817 0,0.217906 0.0978,0.03706 0.0978,0.03706 0.19675,0.07518 0.34461,0.183039 0.57744,0.419467 0.85103,0.687488 0.13388,0.118759 0.13388,0.118759 0.26893,0.238606 0.19675,0.197205 0.19675,0.197205 0.19675,0.415107 0.0768,0 0.15367,0 0.23284,0 1.63919,2.099509 2.198,4.552022 1.79984,7.116761 -0.13038,0.622116 -0.30618,1.185397 -0.64031,1.739964 -0.13155,0.210279 -0.13155,0.210279 -0.26427,0.554567 -1.08619,2.184493 -3.12004,3.510442 -5.40419,4.447429 -0.26427,0.08716 -0.26427,0.08716 -0.61353,0.08716 0,13.806425 0,27.612849 0,41.837648 0.15367,0.03595 0.30735,0.07191 0.46567,0.108952 2.41105,0.666787 4.39484,2.305426 5.58815,4.358087 0.14203,0.320321 0.2666,0.639551 0.38069,0.968587 0.0629,0.225531 0.0629,0.225531 0.2014,0.338839 0.60771,1.800984 0.67523,4.209915 -0.23284,5.931359 -0.0536,0.0872 -0.0536,0.0872 -0.10943,0.1765 -0.14087,0.23207 -0.14087,0.23207 -0.2829,0.57418 -0.82774,1.83149 -2.60431,3.33503 -4.51592,4.15326 -0.30152,0.1046 -0.60305,0.19612 -0.91273,0.27783 -0.14203,0.0403 -0.28289,0.0806 -0.42958,0.12311 -0.1269,0.0316 -0.2538,0.0621 -0.38535,0.0948 -0.13621,0.0371 -0.27359,0.0741 -0.41446,0.11222 -1.99077,0.46087 -4.40182,0.10024 -6.19002,-0.82476 -0.5332,-0.32032 -1.0408,-0.67006 -1.54489,-1.03069 -0.0885,-0.0577 -0.17813,-0.11549 -0.2701,-0.17541 -0.064,-0.0501 -0.12922,-0.10024 -0.19558,-0.15145 0,-0.0719 0,-0.14382 0,-0.21791 -0.40398,-0.13074 -0.56231,-0.11657 -0.96396,0.0403 -0.14203,0.0741 -0.28406,0.14926 -0.42609,0.22553 -0.0757,0.0392 -0.15135,0.0795 -0.22935,0.11985 -0.23749,0.1242 -0.47266,0.25059 -0.70899,0.37697 -0.14669,0.0784 -0.29338,0.1558 -0.44007,0.23316 -0.50409,0.26911 -1.00819,0.53822 -1.50763,0.81496 -0.13854,0.0741 -0.13854,0.0741 -0.27825,0.15035 -0.078,0.0425 -0.15483,0.0861 -0.234,0.12966 -0.2177,0.0882 -0.2177,0.0882 -0.68338,0.0882 0,0.0719 0,0.14382 0,0.2179 -0.0652,0.0294 -0.13039,0.0588 -0.19675,0.0893 -0.60305,0.27456 -1.18864,0.56982 -1.76725,0.8847 -0.49827,0.2702 -0.99655,0.52624 -1.51345,0.76266 -0.64264,0.29418 -1.26199,0.61994 -1.88367,0.95116 -0.59491,0.31596 -1.19912,0.60795 -1.81498,0.88686 -0.29455,0.13293 -0.29455,0.13293 -0.62401,0.34756 -0.11526,0 -0.23051,0 -0.34926,0 0,0.0719 0,0.14382 0,0.21791 -0.11759,0.0545 -0.23633,0.10895 -0.35857,0.16452 -0.74625,0.3432 -1.48785,0.68858 -2.20266,1.08843 -0.60888,0.34102 -1.23289,0.63519 -1.86853,0.92718 -0.61121,0.28219 -1.19796,0.59161 -1.781225,0.92065 -0.90807,0.49464 -0.90807,0.49464 -1.356279,0.49464 0,0.0719 0,0.14382 0,0.21791 -0.121076,0.0556 -0.121076,0.0556 -0.244483,0.11222 -0.692695,0.32141 -1.379569,0.65044 -2.061789,0.99146 -0.105942,0.0523 -0.105942,0.0523 -0.215376,0.10678 -0.358572,0.17977 -0.710161,0.36498 -1.059419,0.55892 -0.3772,0.19176 -0.3772,0.19176 -0.726458,0.19176 0,0.0719 0,0.14382 0,0.2179 -0.09895,0.0447 -0.196747,0.0904 -0.299196,0.13619 -0.799804,0.36826 -1.578647,0.75395 -2.34935,1.17342 -0.59723,0.32358 -1.213088,0.60795 -1.832443,0.8934 -0.491289,0.23316 -0.966282,0.48811 -1.441273,0.74742 -0.551828,0.29853 -1.1153,0.56655 -1.688086,0.82803 -0.266597,0.1253 -0.522724,0.25931 -0.778844,0.40313 -0.342278,0.1765 -0.342278,0.1765 -0.691536,0.1765 0,0.0719 0,0.14382 0,0.2179 -0.103608,0.0479 -0.208388,0.0948 -0.315497,0.14382 -0.958133,0.44017 -0.958133,0.44017 -1.881336,0.93917 -0.491291,0.28436 -0.996556,0.52515 -1.513459,0.76267 -0.803291,0.36934 -1.575155,0.77574 -2.343523,1.20501 -0.19326,0.10786 -0.387678,0.21463 -0.582099,0.32032 -0.07916,0.0436 -0.15833,0.0872 -0.239824,0.13183 -0.225854,0.0926 -0.225854,0.0926 -0.691531,0.0926 0,0.0719 0,0.14382 0,0.21791 -0.153675,0.0359 -0.307348,0.0719 -0.465683,0.10895 0.03727,0.13945 0.07567,0.27782 0.114097,0.42164 0.132715,0.56002 0.159493,1.09715 0.154834,1.66915 0,0.10023 0,0.19938 -0.0013,0.3018 -0.0186,1.06555 -0.145524,2.12239 -0.726456,3.06156 -0.140869,0.23206 -0.140869,0.23206 -0.282903,0.57417 -0.826577,1.82822 -2.614782,3.36554 -4.540361,4.15653 -0.217705,0.0741 -0.436576,0.14382 -0.657773,0.20701 -0.228182,0.049 -0.228182,0.049 -0.34693,0.1765 -0.119912,0.0163 -0.239823,0.0316 -0.363228,0.0479 -0.44123,0.0479 -0.44123,0.0479 -0.810281,0.17215 -0.556485,0.15144 -1.109477,0.14382 -1.685756,0.14163 -0.112927,-0.001 -0.225853,-0.001 -0.342273,-0.002 -1.159539,-0.0164 -2.301616,-0.1253 -3.324942,-0.67987 -0.246811,-0.13183 -0.246811,-0.13183 -0.613532,-0.26475 -1.952355,-0.77247 -3.56244,-2.43182 -4.433258,-4.21863 -0.111762,-0.28436 -0.209555,-0.56982 -0.301527,-0.86181 -0.06519,-0.17433 -0.130389,-0.34974 -0.196747,-0.52406 -0.272423,-0.73761 -0.289885,-1.46105 -0.291049,-2.23352 -0.0011,-0.0981 -0.0024,-0.19612 -0.0035,-0.29635 -0.0024,-0.64935 0.08499,-1.22027 0.25845,-1.84892 -0.153673,-0.0359 -0.307348,-0.0719 -0.465677,-0.10895 0,-0.0719 0,-0.14382 0,-0.21791 -0.08033,-0.01 -0.160661,-0.0196 -0.243316,-0.0294 -0.420275,-0.0981 -0.731116,-0.27347 -1.102495,-0.48048 -0.522725,-0.28872 -1.047777,-0.5611 -1.593784,-0.81061 -0.438902,-0.20047 -0.858012,-0.41401 -1.273631,-0.65371 -0.516903,-0.29852 -1.046609,-0.53386 -1.607754,-0.74959 0,-0.0719 0,-0.14381 0,-0.2179 -0.08615,-0.013 -0.172299,-0.0261 -0.261942,-0.0392 -0.309677,-0.0675 -0.514575,-0.15145 -0.785834,-0.30071 -0.428424,-0.23098 -0.859176,-0.45542 -1.294585,-0.67442 -0.129225,-0.0654 -0.258451,-0.12965 -0.391171,-0.19611 -0.278241,-0.14055 -0.557649,-0.27892 -0.837054,-0.41728 -0.146691,-0.073 -0.292214,-0.14491 -0.438904,-0.21791 -0.07218,-0.0359 -0.14436,-0.0719 -0.220033,-0.10895 -0.512244,-0.25495 -1.016342,-0.52297 -1.51811,-0.79645 -0.594904,-0.32031 -1.186316,-0.59923 -1.819638,-0.84437 0,-0.0719 0,-0.14382 0,-0.21791 -0.08499,-0.012 -0.169973,-0.024 -0.257288,-0.0359 -0.343438,-0.0774 -0.559978,-0.18739 -0.855683,-0.36498 -0.655442,-0.38134 -1.336497,-0.69839 -2.030357,-1.01544 -0.223526,-0.1035 -0.445888,-0.2081 -0.669413,-0.31269 -0.09546,-0.0447 -0.190928,-0.0893 -0.288721,-0.1351 -0.06869,-0.0327 -0.136211,-0.0643 -0.206062,-0.097 0,-0.0719 0,-0.14382 0,-0.21791 -0.08499,-0.012 -0.169973,-0.024 -0.257288,-0.0359 -0.343438,-0.0774 -0.559978,-0.18742 -0.855683,-0.36502 -0.535531,-0.3116 -1.082702,-0.57744 -1.648501,-0.83675 -1.034971,-0.48266 -2.047821,-0.99691 -3.035059,-1.5602 -0.565799,-0.31486 -1.153718,-0.58071 -1.770742,-0.79753 0,-0.0719 0,-0.14381 0,-0.2179 -0.08499,-0.012 -0.169972,-0.024 -0.257287,-0.0359 -0.343409,-0.0774 -0.55995,-0.1874 -0.855656,-0.36499 -0.53553,-0.3116 -1.082702,-0.57744 -1.648501,-0.83675 -1.024492,-0.4783 -2.037342,-0.97948 -3.008282,-1.5493 -0.313168,-0.16997 -0.633322,-0.32032 -0.958133,-0.47068 -0.452872,-0.21136 -0.901087,-0.43036 -1.348138,-0.65044 -0.09779,-0.0479 -0.195585,-0.0959 -0.295706,-0.14491 -0.592576,-0.29308 -1.168852,-0.60142 -1.738144,-0.93154 -0.416782,-0.22553 -0.85452,-0.40094 -1.299243,-0.572 0,-0.0719 0,-0.14382 0,-0.2179 -0.08033,-0.01 -0.160659,-0.0196 -0.243317,-0.0294 -0.420274,-0.0981 -0.731114,-0.27347 -1.102493,-0.48048 -0.630994,-0.34756 -1.267809,-0.66679 -1.925579,-0.96532 -0.461022,-0.21681 -0.901088,-0.46305 -1.341154,-0.71363 -0.265437,-0.12421 -0.265437,-0.12421 -0.49944,-0.0403 -0.336453,0.22118 -0.663592,0.45215 -0.98491,0.69076 -2.104865,1.55039 -4.406481,2.06682 -7.0585182,1.86526 -2.117673,-0.27129 -4.415795,-1.3412 -5.827964,-2.86653 -0.225854,-0.29308 -0.225854,-0.29308 -0.225854,-0.51099 -0.07684,0 -0.153674,0 -0.232839,0 -1.70787497,-1.89904 -2.02337197,-4.377696 -1.86271297,-6.755033 0.08615,-0.737608 0.298034,-1.426186 0.691532,-2.072275 0.139703,-0.235336 0.139703,-0.235336 0.28289997,-0.578532 0.933684,-2.061377 2.918638,-3.497369 5.079385,-4.322138 0.101286,-0.04031 0.20257,-0.08171 0.306184,-0.123114 0.275914,-0.09479 0.275914,-0.09479 0.625173,-0.09479 0,-13.806426 0,-27.61285 0,-41.83765 -0.153674,-0.03595 -0.307348,-0.07191 -0.465678,-0.108951 -2.41105,-0.666788 -4.394839,-2.30434 -5.58814,-4.358091 -0.14203197,-0.319231 -0.26660097,-0.638461 -0.38069197,-0.967496 -0.06287,-0.226619 -0.06287,-0.226619 -0.201406,-0.339931 -0.714816,-2.119118 -0.539022,-4.541127 0.504097,-6.526236 0.30734797,-0.532775 0.64263597,-1.038315 1.00935797,-1.536224 0.05937,-0.08389 0.118748,-0.167787 0.179286,-0.253859 0.580933,-0.764847 1.341153,-1.279099 2.149105,-1.816236 0.08615,-0.05774 0.171137,-0.114399 0.259616,-0.174322 0.605382,-0.381332 1.263152,-0.591611 1.952356,-0.806248 0.09546,-0.03158 0.192092,-0.06319 0.289885,-0.09588 2.2119721,-0.721263 4.7638892,-0.45433 6.8699192,0.457599 0.818429,0.424912 1.575156,0.952243 2.248062,1.559107 0.337616,0.29526 0.337616,0.29526 0.691532,0.230976 0.187436,-0.0937 0.187436,-0.0937 0.378364,-0.190666 0.08964,-0.04358 0.179286,-0.08716 0.271257,-0.131829 0.620517,-0.307248 1.229391,-0.637374 1.83943,-0.964231 0.103613,-0.05556 0.103613,-0.05556 0.209555,-0.11222 0.303855,-0.162281 0.60771,-0.326799 0.910401,-0.493494 0.09197,-0.04903 0.182778,-0.09915 0.277078,-0.150352 0.07684,-0.04249 0.153674,-0.08499 0.232839,-0.128565 0.217705,-0.08934 0.217705,-0.08934 0.683383,-0.08934 0,-0.07191 0,-0.143817 0,-0.217906 0.104778,-0.04685 0.208392,-0.09479 0.315497,-0.143817 0.644965,-0.296347 1.285272,-0.591607 1.896475,-0.945704 0.511082,-0.29526 1.038463,-0.543671 1.576321,-0.789904 0.49944,-0.23098 0.983745,-0.479391 1.465723,-0.741963 0.59956,-0.326857 1.208435,-0.626478 1.831279,-0.91302 1.034971,-0.48157 2.046657,-0.995823 3.033894,-1.558016 0.823087,-0.464139 0.823087,-0.464139 1.289929,-0.464139 0,-0.07191 0,-0.143817 0,-0.217901 0.121077,-0.04141 0.121077,-0.04141 0.243317,-0.08281 0.388842,-0.154713 0.739264,-0.343196 1.102494,-0.543671 0.519231,-0.282186 1.039626,-0.549119 1.579813,-0.796439 0.594904,-0.272381 1.160703,-0.578537 1.729995,-0.894498 0.462186,-0.248411 0.937178,-0.464139 1.414498,-0.683132 0.31084,-0.148173 0.604217,-0.307243 0.901088,-0.479391 0.449379,-0.258215 0.908072,-0.482656 1.3819,-0.700562 0.720637,-0.331213 1.414497,-0.692936 2.107194,-1.070999 0.980253,-0.52297 0.980253,-0.52297 1.414498,-0.52297 0,-0.07191 0,-0.143817 0,-0.217906 0.147852,-0.06755 0.147852,-0.06755 0.299198,-0.136191 0.733443,-0.337748 1.45408,-0.684218 2.160747,-1.06882 0.610039,-0.332304 1.229392,-0.636278 1.862714,-0.927181 0.668248,-0.311604 1.317869,-0.652626 1.96749,-0.995823 0.114091,-0.05992 0.228182,-0.119851 0.345765,-0.180861 0.103614,-0.05557 0.207227,-0.110042 0.313169,-0.166696 0.268931,-0.119851 0.268931,-0.119851 0.618188,-0.119851 0,-0.07191 0,-0.143817 0,-0.217902 0.08033,-0.03706 0.161825,-0.07409 0.244481,-0.11222 1.289931,-0.598151 2.567054,-1.21482 3.797607,-1.915382 0.275915,-0.156891 0.552992,-0.312691 0.833564,-0.464134 0.0815,-0.04467 0.161825,-0.08934 0.245645,-0.135104 0.234005,-0.09697 0.234005,-0.09697 0.699683,-0.09697 0,-0.07191 0,-0.143817 0,-0.217901 0.153672,-0.03595 0.307348,-0.07191 0.465677,-0.108955 -0.03726,-0.13837 -0.07567,-0.277826 -0.114091,-0.420556 -0.132718,-0.560015 -0.158329,-1.0971471 -0.154837,-1.6691451 0,-0.100238 0.0011,-0.200475 0.0011,-0.302891 0.01863,-1.06555 0.145527,-2.122387 0.726459,-3.061556 0.140867,-0.230976 0.140867,-0.230976 0.2829,-0.574175 0.826577,-1.82713 2.599648,-3.33394 4.507765,-4.14889996 0.30502,-0.1046 0.610039,-0.19612 0.92088,-0.28219 0.187433,-0.061 0.373705,-0.12203 0.559977,-0.18304 1.771907,-0.57418 4.4449,-0.49246 6.082922,0.39441 z M 64.579334,5.7778039 c 0,0.07191 0,0.143817 0,0.217906 -0.07684,0 -0.153672,0 -0.232838,0 -0.530874,0.586163 -0.828908,1.228981 -1.047777,1.96114 -0.03842,0.107864 -0.07684,0.215723 -0.116419,0.326857 -0.10827,1.300887 0.251465,2.3479191 1.004702,3.4319931 0.05239,0.05448 0.104778,0.107864 0.159494,0.16343 0.07684,0 0.153672,0 0.232838,0 0,0.07191 0,0.143817 0,0.217906 1.185151,0.86508 2.340034,1.210459 3.841846,1.089521 0.840549,-0.168878 1.805667,-0.540402 2.444811,-1.089521 0,-0.07191 0,-0.143817 0,-0.217906 0.07684,0 0.153675,0 0.232841,0 0.92437,-1.109135 1.293421,-2.1899421 1.164193,-3.5954231 -0.180448,-0.785548 -0.578604,-1.68985 -1.164193,-2.287997 -0.07684,0 -0.153675,0 -0.232841,0 0,-0.07191 0,-0.143817 0,-0.217906 -1.853399,-1.353187 -4.453049,-1.573267 -6.286657,0 z m -4.200416,9.4102031 c -0.145527,0.07409 -0.289886,0.149265 -0.434245,0.225532 -0.07684,0.0392 -0.15484,0.07954 -0.234006,0.119847 -0.65777,0.33993 -1.307391,0.691848 -1.958176,1.043762 -0.584427,0.307248 -1.185151,0.583986 -1.788205,0.858545 -0.232838,0.108951 -0.465677,0.217906 -0.698516,0.326857 0,0.07191 0,0.143817 0,0.217906 -0.119912,0.01524 -0.119912,0.01524 -0.243318,0.0294 -0.420275,0.09915 -0.731116,0.273469 -1.102493,0.481566 -0.508754,0.280007 -1.018672,0.548032 -1.549545,0.789903 -0.561142,0.256038 -1.103657,0.534958 -1.645008,0.823679 -0.763712,0.407481 -1.537904,0.784456 -2.328391,1.144 -0.232839,0.108951 -0.465678,0.217902 -0.698519,0.326857 0,0.07191 0,0.143817 0,0.217902 -0.08498,0.01198 -0.169971,0.02397 -0.257286,0.03595 -0.343438,0.07736 -0.559978,0.1874 -0.855684,0.366079 -0.541351,0.314874 -1.095508,0.581807 -1.665964,0.844384 -0.634487,0.296347 -1.255003,0.616669 -1.877848,0.932629 -0.962789,0.485927 -1.927908,0.966405 -2.910489,1.416378 0,0.07191 0,0.143817 0,0.217905 -0.05937,0.0098 -0.119912,0.0196 -0.181615,0.0294 -0.394662,0.111129 -0.740428,0.296347 -1.099,0.48157 -0.546008,0.277825 -1.093181,0.548028 -1.651994,0.802978 -0.601889,0.278916 -1.178166,0.59052 -1.755607,0.910837 -0.253795,0.137282 -0.505261,0.264755 -0.768369,0.383515 -0.434246,0.196114 -0.849863,0.420555 -1.266645,0.647174 -0.614696,0.332305 -1.237541,0.639548 -1.87552,0.93263 -0.917386,0.427094 -1.827787,0.87271 -2.700934,1.37498 -0.508753,0.29199 -1.033805,0.53931 -1.569336,0.783365 -0.499439,0.23098 -0.983745,0.480478 -1.464558,0.741963 -0.611203,0.333396 -1.231719,0.636282 -1.865041,0.928273 -0.831236,0.387871 -1.63686,0.819322 -2.442483,1.250773 -0.06985,0.03813 -0.138539,0.07518 -0.210719,0.113307 -0.303856,0.162339 -0.606546,0.32577 -0.910402,0.489196 -0.09081,0.04794 -0.182778,0.09697 -0.275914,0.147086 -0.11642,0.0621 -0.11642,0.0621 -0.234003,0.125295 -0.225854,0.103507 -0.437738,0.16016 -0.683383,0.208101 0,0.07191 0,0.143817 0,0.217901 -0.153674,0.03595 -0.307348,0.07191 -0.465678,0.108955 0.01863,0.119847 0.03842,0.238602 0.05704,0.361719 0.07684,0.56982 0.07684,1.135283 0.07451,1.708372 0,0.154713 0,0.154713 0.0011,0.312691 -0.0011,0.595968 -0.03842,1.167971 -0.132719,1.7574 0.153674,0.03595 0.307348,0.07191 0.465679,0.108955 0,0.07191 0,0.143816 0,0.217901 0.105941,0.03813 0.211883,0.07627 0.320153,0.11549 0.535531,0.213545 1.025657,0.495735 1.523933,0.77683 0.344602,0.185218 0.692696,0.351914 1.04894,0.516436 0.450544,0.210275 0.896431,0.429268 1.342318,0.648265 0.145524,0.07191 0.145524,0.07191 0.294541,0.144904 0.504097,0.248411 0.997716,0.504448 1.480857,0.787725 0.493619,0.287634 0.996552,0.461956 1.55653,0.605773 0,0.07191 0,0.143817 0,0.217906 0.178122,0.08171 0.178122,0.08171 0.358572,0.164517 0.747414,0.343201 1.487842,0.68858 2.202658,1.088434 0.608875,0.341018 1.234048,0.635191 1.869699,0.927182 0.603053,0.27892 1.182823,0.583985 1.757935,0.90975 0.330632,0.178684 0.667085,0.338844 1.009358,0.496822 0.451708,0.21028 0.897595,0.429273 1.344646,0.649357 0.09663,0.04685 0.193257,0.09479 0.293377,0.143817 0.605382,0.299617 1.200286,0.610134 1.780055,0.952243 0.22469,0.132921 0.22469,0.132921 0.559978,0.224441 0.104778,0.17977 0.104778,0.17977 0.11642,0.435807 -0.16648,0.341022 -0.16648,0.341022 -0.400483,0.714728 -0.322482,0.484839 -0.322482,0.484839 -0.414454,1.02851 -0.07684,0 -0.153674,0 -0.232839,0 -0.05588,0.106773 -0.111763,0.212454 -0.169973,0.322496 -0.07451,0.139461 -0.149017,0.280008 -0.222361,0.420555 -0.03726,0.06973 -0.07451,0.13946 -0.111763,0.211371 -0.166479,0.312691 -0.336452,0.606864 -0.543679,0.897763 -0.82425,-0.297438 -1.665964,-0.647174 -2.386602,-1.129835 -0.298033,-0.216814 -0.298033,-0.216814 -0.756726,-0.177591 0,-0.07191 0,-0.143817 0,-0.217902 -0.103614,-0.04685 -0.208391,-0.09479 -0.315498,-0.143817 -0.750906,-0.344291 -1.478528,-0.702745 -2.191016,-1.113495 -0.422603,-0.233154 -0.861505,-0.431451 -1.302735,-0.6341 -0.429588,-0.20047 -0.853356,-0.409659 -1.277123,-0.621029 -0.06869,-0.03488 -0.137374,-0.06864 -0.20839,-0.104594 -0.386514,-0.192845 -0.769534,-0.390046 -1.15139,-0.590521 -0.540187,-0.281094 -1.088523,-0.549119 -1.638024,-0.817139 -0.692695,-0.337753 -1.372585,-0.686401 -2.038505,-1.071003 -0.378364,-0.212454 -0.771862,-0.391137 -1.170017,-0.56982 -0.592575,-0.26802 -1.171181,-0.54258 -1.731159,-0.86508 -0.532037,-0.303977 -1.079209,-0.565463 -1.640351,-0.820409 -0.465679,-0.218993 -0.911566,-0.468495 -1.357453,-0.721263 -0.266601,-0.124207 -0.266601,-0.124207 -0.502932,-0.03924 -0.253795,0.166696 -0.495948,0.343196 -0.735772,0.526236 -1.102493,0.837844 -2.245733,1.343384 -3.578738,1.810788 0,13.806423 0,27.612847 0,41.837649 0.864998,0.323588 0.864998,0.323588 1.746294,0.653714 0.955804,0.504449 1.775398,1.029597 2.56123,1.743234 0.549501,-0.154713 1.040791,-0.370436 1.54256,-0.626473 0.115255,-0.05775 0.115255,-0.05775 0.232839,-0.116583 0.530873,-0.270198 1.052433,-0.554567 1.568171,-0.849826 1.075717,-0.609042 1.075717,-0.609042 1.586799,-0.793171 0.379528,-0.147084 0.719473,-0.333396 1.072224,-0.528418 0.633323,-0.343201 1.273631,-0.659161 1.931401,-0.962048 0.75207,-0.350827 1.483185,-0.737606 2.211972,-1.130925 0.676398,-0.36608 1.360945,-0.709279 2.061791,-1.032867 0.930192,-0.433628 1.852235,-0.88578 2.738188,-1.395677 0.508754,-0.291992 1.033806,-0.52297 1.585635,-0.735428 0,-0.07191 0,-0.143817 0,-0.217903 0.08033,-0.0087 0.159494,-0.01852 0.242152,-0.02833 0.423767,-0.100234 0.762549,-0.291991 1.132763,-0.502272 0.575113,-0.319225 1.131598,-0.586157 1.768413,-0.776824 0.52156,0.836753 1.023328,1.674593 1.4762,2.546212 0.133883,0.25059 0.279407,0.484833 0.437738,0.722352 0.181614,0.326859 0.181614,0.326859 0.175793,0.544759 -0.168808,0.332306 -0.420274,0.399854 -0.773026,0.551299 -0.119912,0.05339 -0.240988,0.106775 -0.364393,0.16125 -0.182779,0.07845 -0.182779,0.07845 -0.370214,0.159071 -0.232839,0.10895 -0.465678,0.216815 -0.698518,0.326858 0,0.07191 0,0.143817 0,0.217905 -0.06636,0.0131 -0.132718,0.02722 -0.201405,0.04031 -0.864998,0.224444 -1.651994,0.729983 -2.422692,1.149451 -0.476156,0.256037 -0.958133,0.491373 -1.450587,0.716902 -0.559979,0.25822 -1.104822,0.530595 -1.643845,0.823677 -0.718309,0.391141 -1.451752,0.743055 -2.198001,1.082987 -0.223526,0.104592 -0.445887,0.209187 -0.669413,0.313782 -0.165316,0.07736 -0.329467,0.15362 -0.494783,0.230979 0,0.07191 0,0.143817 0,0.217903 -0.136211,0.03377 -0.273586,0.06755 -0.414454,0.102415 -0.612367,0.189579 -1.135091,0.494644 -1.679935,0.811697 -0.537858,0.309424 -1.08503,0.583985 -1.653157,0.843288 -0.791653,0.361722 -1.549545,0.761576 -2.306272,1.184309 -0.193256,0.105685 -0.387677,0.21028 -0.582098,0.313783 -0.118748,0.06319 -0.118748,0.06319 -0.239824,0.128563 -0.229347,0.104595 -0.442395,0.162341 -0.691532,0.211368 0,0.07191 0,0.143817 0,0.217905 -0.153674,0.03595 -0.307348,0.07191 -0.465679,0.108951 0.01863,0.119851 0.03842,0.238606 0.05705,0.361722 0.07684,0.56982 0.07684,1.135285 0.07451,1.708372 0,0.154713 0,0.154713 0.0011,0.312693 -0.0011,0.595968 -0.03842,1.167969 -0.132719,1.757399 0.153674,0.03595 0.307348,0.07191 0.465678,0.10895 0,0.07191 0,0.143817 0,0.217906 0.105942,0.03813 0.211884,0.07627 0.320154,0.115491 0.406304,0.162337 0.777683,0.361726 1.157211,0.573086 0.575112,0.31814 1.158375,0.60469 1.757935,0.88034 1.033806,0.48156 2.044328,0.99473 3.029238,1.55801 0.385348,0.21355 0.783503,0.39659 1.186315,0.57745 0.592575,0.26802 1.171181,0.54258 1.732323,0.86508 0.421439,0.24187 0.849863,0.45651 1.294586,0.66025 0.435409,0.19938 0.853355,0.40857 1.266645,0.64718 0.527381,0.30397 1.075716,0.56328 1.631038,0.81931 0.674069,0.31161 1.326019,0.65372 1.979133,1.00019 0.114091,0.0599 0.229347,0.12094 0.348094,0.18304 0.104778,0.0556 0.21072,0.11113 0.31899,0.16887 0.278243,0.14709 0.278243,0.14709 0.626337,0.12312 0,0.0719 0,0.14381 0,0.2179 0.13854,0.0643 0.13854,0.0643 0.279407,0.12857 0.648457,0.30179 1.29575,0.60577 1.934893,0.92391 0.09896,0.049 0.196749,0.0981 0.299199,0.14818 0.194421,0.0981 0.388841,0.19502 0.583262,0.29308 0.09081,0.0458 0.18045,0.0904 0.273586,0.13619 0.119912,0.061 0.119912,0.061 0.242152,0.12202 0.229347,0.10024 0.447052,0.16017 0.695025,0.20919 0,0.0719 0,0.14382 0,0.21791 0.147853,0.0675 0.147853,0.0675 0.299199,0.13619 0.799802,0.36826 1.578649,0.75286 2.348182,1.17341 0.477321,0.25822 0.961626,0.49356 1.456409,0.72018 0.576277,0.26475 1.125778,0.55129 1.671786,0.86617 0.845206,0.50335 0.845206,0.50335 1.791697,0.69947 0,0.0719 0,0.14382 0,0.2179 0.147855,0.0675 0.147855,0.0675 0.299199,0.1362 0.799801,0.36825 1.57865,0.75285 2.348183,1.17341 0.477321,0.25821 0.961625,0.49355 1.456409,0.72017 0.572784,0.26258 1.115298,0.54695 1.657813,0.85964 0.762551,0.42164 1.542561,0.78554 2.387767,1.03287 0,0.0719 0,0.14381 0,0.2179 0.105942,0.0381 0.211884,0.0763 0.320154,0.11549 0.546007,0.2179 1.045448,0.50771 1.5542,0.79099 0.327141,0.17759 0.655444,0.33775 0.996553,0.49029 0.238659,0.11331 0.46917,0.23206 0.700844,0.35627 0.117586,0.061 0.117586,0.061 0.236334,0.12421 0.156001,0.0817 0.312004,0.1656 0.466841,0.25168 0.409798,0.22552 0.409798,0.22552 0.866162,0.21245 0.261945,-0.19829 0.515739,-0.40203 0.767204,-0.61122 1.045448,-0.81388 2.255049,-1.28564 3.521694,-1.73016 0.03842,-5.82459 0.07684,-11.64917 0.11642,-17.65026 1.536737,0 3.073476,0 4.65678,0 0.03842,5.82458 0.07684,11.64917 0.116422,17.65026 0.864997,0.32359 0.864997,0.32359 1.746292,0.65371 0.810282,0.40639 1.471542,0.8738 2.16075,1.44253 0.288718,0.23425 0.288718,0.23425 0.749739,0.19176 0.299199,-0.12094 0.584427,-0.24733 0.873149,-0.38788 0.08266,-0.0392 0.165317,-0.0784 0.250301,-0.11875 0.727622,-0.35083 1.433123,-0.73543 2.136301,-1.12766 0.190924,-0.10241 0.383019,-0.20483 0.575112,-0.30615 0.078,-0.0414 0.156001,-0.0828 0.236331,-0.12421 0.236419,-0.1144 0.236419,-0.1144 0.510003,-0.21245 0.378362,-0.14709 0.71831,-0.3334 1.072224,-0.52842 0.740429,-0.40204 1.494827,-0.76594 2.263196,-1.11676 0.232841,-0.10896 0.465677,-0.21791 0.698519,-0.32686 0,-0.0719 0,-0.14382 0,-0.21791 0.08033,-0.01 0.16066,-0.0196 0.243316,-0.0294 0.420277,-0.0981 0.731112,-0.27346 1.102492,-0.48047 0.621684,-0.34211 1.250347,-0.6559 1.897639,-0.95443 0.930193,-0.43363 1.852235,-0.88578 2.73819,-1.39567 0.508754,-0.29199 1.033806,-0.52297 1.585637,-0.73543 0,-0.0719 0,-0.14382 0,-0.21791 0.08033,-0.01 0.160655,-0.0196 0.243316,-0.0294 0.420272,-0.0981 0.731113,-0.27347 1.102492,-0.48048 0.739267,-0.40748 1.492499,-0.77247 2.263196,-1.12439 0.232841,-0.10895 0.465677,-0.2179 0.698519,-0.32686 0,-0.0719 0,-0.14381 0,-0.2179 0.08033,-0.01 0.16066,-0.0196 0.243316,-0.0294 0.420277,-0.0981 0.731112,-0.27347 1.102492,-0.48048 0.519234,-0.28654 1.038466,-0.55674 1.579814,-0.80406 0.472669,-0.21682 0.929029,-0.44998 1.381899,-0.70166 0.682215,-0.37806 1.383065,-0.70928 2.095545,-1.03504 0.22353,-0.10351 0.44705,-0.2081 0.66942,-0.3127 0.16531,-0.0773 0.32947,-0.15471 0.49478,-0.23206 0,-0.0719 0,-0.14382 0,-0.21791 0.085,-0.012 0.16997,-0.024 0.25845,-0.0359 0.34228,-0.0774 0.55998,-0.1874 0.85452,-0.36499 0.65661,-0.38133 1.33766,-0.69838 2.03036,-1.01543 0.22352,-0.10351 0.44705,-0.2081 0.66941,-0.3127 0.16532,-0.0773 0.32947,-0.15471 0.49478,-0.23206 0,-0.0719 0,-0.14382 0,-0.21791 0.0664,-0.013 0.13272,-0.0261 0.20141,-0.0403 0.86966,-0.22554 1.66247,-0.73543 2.43899,-1.15599 0.55067,-0.29635 1.11297,-0.56546 1.68459,-0.82803 0.83124,-0.38678 1.63686,-0.81932 2.44248,-1.25077 0.0687,-0.0371 0.13854,-0.0741 0.20956,-0.11223 0.30385,-0.16343 0.60771,-0.32577 0.9104,-0.48919 0.092,-0.049 0.18278,-0.09806 0.27708,-0.148175 0.0768,-0.0414 0.15367,-0.08281 0.23284,-0.125294 0.22585,-0.102417 0.4389,-0.159075 0.68338,-0.208102 0,-0.07191 0,-0.143817 0,-0.217906 0.15367,-0.03595 0.30735,-0.07191 0.46568,-0.10895 -0.0186,-0.118756 -0.0373,-0.237517 -0.057,-0.360632 -0.0757,-0.56982 -0.0768,-1.135283 -0.0734,-1.70946 -0.001,-0.102415 -0.001,-0.205917 -0.002,-0.311603 10e-4,-0.597061 0.0396,-1.169058 0.13272,-1.758491 -0.15368,-0.03595 -0.30735,-0.07191 -0.46568,-0.108951 0,-0.0719 0,-0.143817 0,-0.217905 -0.10594,-0.03813 -0.21072,-0.07626 -0.32015,-0.115485 -0.53554,-0.213551 -1.02566,-0.495737 -1.52394,-0.775743 -0.3446,-0.185219 -0.69269,-0.353007 -1.04894,-0.517522 -1.15138,-0.534956 -2.29346,-1.093878 -3.38781,-1.725803 -0.2992,-0.167788 -0.60654,-0.310515 -0.91971,-0.452152 -0.42493,-0.199385 -0.8359,-0.422733 -1.24919,-0.643909 -0.28173,-0.151444 -0.28173,-0.151444 -0.63099,-0.127473 0,-0.07191 0,-0.143817 0,-0.217906 -0.10012,-0.04576 -0.20024,-0.09261 -0.30269,-0.139456 -1.12345,-0.521883 -2.24341,-1.050304 -3.32028,-1.651717 -0.32249,-0.196115 -0.32249,-0.196115 -0.68455,-0.169966 0,-0.07191 0,-0.143817 0,-0.217903 -0.099,-0.04467 -0.19675,-0.08934 -0.2992,-0.136192 -0.79864,-0.36717 -1.57632,-0.751771 -2.34586,-1.171233 -0.810275,-0.437991 -1.649655,-0.863994 -2.515815,-1.191938 -0.194424,-0.11549 -0.194424,-0.11549 -0.306187,-0.300709 -0.007,-0.385691 0.195586,-0.666787 0.39583,-0.992555 0.08615,-0.144905 0.1723,-0.290899 0.258448,-0.435809 0.04541,-0.07518 0.08964,-0.150355 0.136215,-0.226618 0.221195,-0.372618 0.433084,-0.750681 0.646124,-1.128747 0.2049,-0.363903 0.4098,-0.719085 0.65428,-1.062283 1.500645,0.542581 2.971025,1.306337 4.343605,2.090793 0.96978,0.601416 0.96978,0.601416 2.05947,0.850918 0,0.07191 0,0.143817 0,0.2179 0.099,0.04576 0.19791,0.09043 0.29919,0.136192 0.89062,0.41075 1.75328,0.846558 2.60431,1.323771 0.32598,0.159068 0.57744,0.239692 0.93834,0.283276 0,0.07191 0,0.143817 0,0.217903 0.15368,0 0.30735,0 0.46568,0 0,0.07191 0,0.143817 0,0.217906 0.099,0.04576 0.19791,0.09043 0.2992,0.136189 0.89061,0.41075 1.75328,0.846558 2.60431,1.323766 0.32597,0.159075 0.57744,0.239699 0.93834,0.283279 0,0.07191 0,0.143816 0,0.217905 0.10594,0.03813 0.21188,0.07627 0.32015,0.115491 0.54601,0.2179 1.04545,0.507711 1.5542,0.79099 0.32714,0.177591 0.65544,0.337751 0.99655,0.490286 0.23866,0.113308 0.46917,0.232069 0.70085,0.356272 0.078,0.0414 0.156,0.08171 0.23633,0.124206 0.156,0.08172 0.31201,0.165608 0.46684,0.251683 0.4098,0.225528 0.4098,0.225528 0.86617,0.212452 0.26194,-0.198292 0.51573,-0.402032 0.7672,-0.611222 1.04545,-0.813871 2.25505,-1.285634 3.52169,-1.730158 0,-13.806424 0,-27.612848 0,-41.83765 -0.86383,-0.323587 -0.86383,-0.323587 -1.74629,-0.653713 -0.81028,-0.406393 -1.47155,-0.873797 -2.15958,-1.442526 -0.28989,-0.234249 -0.28989,-0.234249 -0.75091,-0.191757 -0.35741,0.137278 -0.35741,0.137278 -0.74159,0.326856 -0.10711,0.05121 -0.10711,0.05121 -0.21538,0.103503 -0.78234,0.378067 -1.54256,0.790995 -2.30278,1.203924 -0.19791,0.107864 -0.39699,0.214636 -0.59607,0.320318 -0.078,0.04141 -0.15483,0.08281 -0.234,0.125298 -0.22585,0.103503 -0.43774,0.160157 -0.68338,0.208097 0,0.07191 0,0.143817 0,0.217906 -0.1921,0.03595 -0.38419,0.07191 -0.5821,0.108951 0,0.07191 0,0.143817 0,0.217906 -0.0803,0.0098 -0.16066,0.0196 -0.24332,0.0294 -0.42027,0.09915 -0.73111,0.273473 -1.10249,0.48157 -0.50875,0.280007 -1.01867,0.548032 -1.54955,0.789904 -0.56114,0.256037 -1.10365,0.534958 -1.645,0.823678 -0.76372,0.407481 -1.53791,0.784456 -2.3284,1.144001 -0.23284,0.108951 -0.46567,0.217901 -0.69851,0.326856 0,0.07191 0,0.143817 0,0.217902 -0.0803,0.0098 -0.16066,0.0196 -0.24332,0.0294 -0.42027,0.09915 -0.73112,0.273468 -1.10249,0.481569 -0.50876,0.280008 -1.01867,0.548028 -1.54955,0.789904 -0.6566,0.300708 -1.28993,0.630834 -1.92325,0.969674 -1.257325,0.671144 -1.257325,0.671144 -1.584465,0.671144 -0.14552,-0.175413 -0.14552,-0.175413 -0.29803,-0.408567 -0.0512,-0.07518 -0.10129,-0.151448 -0.15368,-0.229893 -0.12573,-0.224441 -0.19325,-0.421642 -0.24681,-0.668966 -0.0768,0 -0.15367,0 -0.232837,0 -0.04075,-0.1351 -0.08149,-0.269112 -0.123402,-0.408568 -0.202573,-0.582898 -0.533204,-1.071003 -0.885952,-1.585256 -0.154842,-0.294173 -0.154842,-0.294173 -0.158335,-0.531688 0.180454,-0.296351 0.408633,-0.364988 0.7381,-0.504448 0.508756,-0.223354 0.995386,-0.458691 1.477366,-0.728889 0.682215,-0.378067 1.383055,-0.70928 2.095545,-1.035046 0.22353,-0.103507 0.44705,-0.208101 0.66942,-0.312695 0.16531,-0.07735 0.32946,-0.154713 0.49478,-0.232067 0,-0.07191 0,-0.143817 0,-0.217906 0.085,-0.01198 0.16997,-0.02397 0.25845,-0.03595 0.34227,-0.07736 0.55998,-0.187397 0.85452,-0.364988 0.54135,-0.314874 1.09434,-0.581807 1.6648,-0.84438 0.63448,-0.296351 1.25617,-0.615581 1.87901,-0.93372 0.10711,-0.05339 0.21305,-0.106777 0.32249,-0.16234 0.52388,-0.264755 1.04195,-0.534957 1.55652,-0.813874 0.67756,-0.366079 1.36211,-0.70928 2.06296,-1.032867 0.92088,-0.428181 1.83477,-0.874884 2.70908,-1.381515 0.66243,-0.382419 1.3691,-0.673323 2.08042,-0.967496 0,-0.07191 0,-0.143817 0,-0.217901 0.23051,-0.05339 0.23051,-0.05339 0.46568,-0.108955 -0.0186,-0.118756 -0.0373,-0.237515 -0.057,-0.360632 -0.0757,-0.569819 -0.0768,-1.135282 -0.0734,-1.709459 -0.001,-0.102416 -0.001,-0.205918 -0.002,-0.311604 0.001,-0.597059 0.0396,-1.169057 0.13271,-1.758487 -0.15367,-0.03595 -0.30735,-0.07191 -0.46568,-0.108955 0,-0.07191 0,-0.143816 0,-0.217901 -0.15833,-0.05666 -0.15833,-0.05666 -0.32015,-0.11549 -0.53436,-0.213549 -1.02217,-0.496822 -1.5216,-0.774651 -0.35508,-0.190666 -0.71482,-0.363901 -1.0827,-0.532775 -0.43076,-0.197205 -0.84405,-0.404215 -1.25151,-0.640639 -0.58443,-0.335574 -1.19331,-0.61776 -1.80917,-0.898855 -0.40514,-0.1874 -0.79747,-0.393319 -1.19213,-0.600329 -0.45287,-0.234245 -0.91274,-0.455421 -1.37259,-0.679861 -0.68222,-0.333392 -1.35047,-0.676593 -2.00591,-1.055746 -0.43657,-0.239694 -0.89061,-0.443434 -1.34581,-0.651535 -0.27242,-0.127473 -0.5332,-0.263664 -0.79515,-0.409659 -0.3283,-0.203741 -0.3283,-0.203741 -0.69152,-0.177592 0,-0.07191 0,-0.143817 0,-0.217906 -0.099,-0.04467 -0.19676,-0.08934 -0.2992,-0.13619 -0.88363,-0.40639 -1.7428,-0.837841 -2.592665,-1.301979 -0.66825,-0.38678 -0.66825,-0.38678 -1.415662,-0.522971 0,-0.07191 0,-0.143817 0,-0.217905 -0.09896,-0.04467 -0.196747,-0.08934 -0.299194,-0.136191 -0.798642,-0.368258 -1.577488,-0.75286 -2.348185,-1.172323 -0.476157,-0.258216 -0.961626,-0.493553 -1.45641,-0.720176 -0.582094,-0.26802 -1.136253,-0.556745 -1.688084,-0.874885 -0.564637,-0.318143 -1.111808,-0.61449 -1.775396,-0.691849 0,-0.07191 0,-0.143816 0,-0.217901 -0.103614,-0.04685 -0.208394,-0.09479 -0.315497,-0.143817 -1.276142,-0.586224 -1.276142,-0.586224 -1.881522,-0.939229 -0.568129,-0.327948 -1.158372,-0.599238 -1.75677,-0.873797 -0.606546,-0.280008 -1.189807,-0.586164 -1.768414,-0.915199 -0.331798,-0.178683 -0.667086,-0.33884 -1.010523,-0.496822 -1.15139,-0.536045 -2.294628,-1.094969 -3.390136,-1.72689 -0.378364,-0.212458 -0.771863,-0.391141 -1.170019,-0.569824 -0.592574,-0.26802 -1.171178,-0.54258 -1.731158,-0.86508 -0.53204,-0.303973 -1.079212,-0.565459 -1.640353,-0.820409 -0.465678,-0.218993 -0.911567,-0.468495 -1.357451,-0.721263 -0.266604,-0.124207 -0.266604,-0.124207 -0.502933,-0.03924 -0.253793,0.166696 -0.495951,0.3432 -0.735774,0.52624 -1.10249,0.83784 -2.245731,1.34338 -3.578736,1.810784 -0.03842,5.824587 -0.07684,11.64917 -0.11642,17.650258 -1.536739,0 -3.073476,0 -4.656783,0 -0.03842,-5.824583 -0.07684,-11.64917 -0.116419,-17.650258 -0.863833,-0.323587 -0.863833,-0.323587 -1.746293,-0.653714 -0.806788,-0.404211 -1.477364,-0.873797 -2.171226,-1.43163 -0.390004,-0.288725 -0.516903,-0.355187 -0.981416,-0.162339 z M 6.3695488,35.194902 c 0,0.07191 0,0.143817 0,0.217906 -0.07684,0 -0.153674,0 -0.232839,0 -0.924371,1.109134 -1.293422,2.191028 -1.164196,3.595422 0.18045,0.786635 0.578605,1.68985 1.164196,2.287997 0.07684,0 0.153674,0 0.232839,0 0,0.07191 0,0.143817 0,0.217905 1.185151,0.865081 2.3400331,1.210459 3.8418462,1.089521 0.840549,-0.168874 1.805667,-0.540401 2.444811,-1.089521 0,-0.07191 0,-0.143816 0,-0.217905 0.07684,0 0.153674,0 0.232839,0 0.924371,-1.109134 1.293421,-2.189942 1.164196,-3.595423 -0.180451,-0.785547 -0.578606,-1.68985 -1.164196,-2.287996 -0.07684,0 -0.153674,0 -0.232839,0 0,-0.07191 0,-0.143817 0,-0.217906 -1.8534,-1.353184 -4.4530492,-1.573268 -6.2866572,0 z m 116.4195712,0 c 0,0.07191 0,0.143817 0,0.217906 -0.0768,0 -0.15368,0 -0.23284,0 -0.92437,1.109134 -1.29342,2.191028 -1.1642,3.595422 0.18045,0.786635 0.57861,1.68985 1.1642,2.287997 0.0768,0 0.15367,0 0.23284,0 0,0.07191 0,0.143817 0,0.217905 1.18515,0.865081 2.34003,1.210459 3.84184,1.089521 0.84055,-0.168874 1.80567,-0.540401 2.44481,-1.089521 0,-0.07191 0,-0.143816 0,-0.217905 0.0768,0 0.15368,0 0.23284,0 0.92437,-1.109134 1.29342,-2.189942 1.1642,-3.595423 -0.18045,-0.785547 -0.57861,-1.68985 -1.1642,-2.287996 -0.0768,0 -0.15367,0 -0.23284,0 0,-0.07191 0,-0.143817 0,-0.217906 -1.8534,-1.353184 -4.45305,-1.573268 -6.28665,0 z M 6.3695488,94.029096 c 0,0.07191 0,0.143817 0,0.217905 -0.07684,0 -0.153674,0 -0.232839,0 -0.924371,1.109134 -1.293422,2.191028 -1.164196,3.595423 0.18045,0.786636 0.578605,1.689852 1.164196,2.287996 0.07684,0 0.153674,0 0.232839,0 0,0.0719 0,0.14382 0,0.2179 1.185151,0.86509 2.3400331,1.21046 3.8418462,1.08953 0.840549,-0.16888 1.805667,-0.54041 2.444811,-1.08953 0,-0.0719 0,-0.14382 0,-0.2179 0.07684,0 0.153674,0 0.232839,0 0.924371,-1.109134 1.293421,-2.189941 1.164196,-3.595421 -0.180451,-0.785548 -0.578606,-1.689852 -1.164196,-2.287998 -0.07684,0 -0.153674,0 -0.232839,0 0,-0.07191 0,-0.143817 0,-0.217905 -1.8534,-1.353185 -4.4530492,-1.573268 -6.2866572,0 z m 116.4195712,0 c 0,0.07191 0,0.143817 0,0.217905 -0.0768,0 -0.15368,0 -0.23284,0 -0.92437,1.109134 -1.29342,2.191028 -1.1642,3.595423 0.18045,0.786636 0.57861,1.689852 1.1642,2.287996 0.0768,0 0.15367,0 0.23284,0 0,0.0719 0,0.14382 0,0.2179 1.18515,0.86509 2.34003,1.21046 3.84184,1.08953 0.84055,-0.16888 1.80567,-0.54041 2.44481,-1.08953 0,-0.0719 0,-0.14382 0,-0.2179 0.0768,0 0.15368,0 0.23284,0 0.92437,-1.109134 1.29342,-2.189941 1.1642,-3.595421 -0.18045,-0.785548 -0.57861,-1.689852 -1.1642,-2.287998 -0.0768,0 -0.15367,0 -0.23284,0 0,-0.07191 0,-0.143817 0,-0.217905 -0.62633,-0.496822 -1.31321,-0.775737 -2.09555,-0.98057 -0.11525,-0.03595 -0.23051,-0.07191 -0.34926,-0.10895 -1.35512,-0.09915 -2.80804,0.202647 -3.84184,1.08952 z M 64.579334,123.44619 c 0,0.0719 0,0.14382 0,0.21791 -0.07684,0 -0.153672,0 -0.232838,0 -0.924372,1.10913 -1.293421,2.19103 -1.164196,3.59542 0.180451,0.78664 0.578607,1.68985 1.164196,2.288 0.07684,0 0.153672,0 0.232838,0 0,0.0719 0,0.14382 0,0.2179 1.185151,0.86508 2.340034,1.21046 3.841846,1.08952 0.840549,-0.16887 1.805667,-0.5404 2.444811,-1.08952 0,-0.0719 0,-0.14382 0,-0.2179 0.07684,0 0.153675,0 0.232841,0 0.92437,-1.10914 1.293421,-2.18994 1.164193,-3.59542 -0.180448,-0.78555 -0.578604,-1.68986 -1.164193,-2.288 -0.07684,0 -0.153675,0 -0.232841,0 0,-0.0719 0,-0.14382 0,-0.21791 -1.853399,-1.35318 -4.453049,-1.57327 -6.286657,0 z"
         fill="#000000"
         id="path21"
         style="fill:#7e3af2;fill-opacity:1;stroke:#7e3af2;stroke-width:3;stroke-linecap:square;stroke-linejoin:bevel;stroke-miterlimit:4;stroke-dasharray:none;stroke-opacity:1;paint-order:fill markers stroke" />
    </g>
  </g>
</svg>
